<svg version="1.1" id="Layer_1" xmlns="http://www.w3.org/2000/svg" xmlns:xlink="http://www.w3.org/1999/xlink" x="0px" y="0px"
	 width="100%" viewBox="0 0 512 512" enable-background="new 0 0 512 512" xml:space="preserve">
<path fill="#000000" opacity="1.000000" stroke="none" 
	d="
M229.468658,513.000000 
	C223.701355,509.433563 217.396179,507.580292 212.531174,503.266785 
	C203.356354,495.132050 197.370621,485.240723 196.745544,472.807251 
	C196.319427,464.331299 196.578812,455.815582 196.702316,447.320129 
	C196.745911,444.321136 195.916290,442.085114 193.848618,439.744843 
	C186.301743,431.203094 181.568359,421.560577 181.550842,409.666901 
	C181.515381,385.595703 173.476852,365.117340 155.996216,347.599823 
	C138.149490,329.715454 127.930428,307.119049 123.622444,282.126617 
	C119.463318,257.997711 120.751427,234.161530 128.703384,210.891037 
	C134.070160,195.185760 142.331299,181.150497 153.146729,168.478409 
	C171.757950,146.672272 194.842499,132.038345 222.604675,125.382607 
	C246.305206,119.700623 270.134125,119.773048 293.868530,126.337540 
	C319.579742,133.448792 341.274292,147.004257 358.862885,166.795761 
	C375.623138,185.655121 386.009033,207.715561 390.594391,232.732849 
	C392.880554,245.205994 392.941589,257.660034 392.070221,269.982361 
	C390.676392,289.693390 384.544891,308.281708 374.555878,325.490814 
	C367.588562,337.494080 358.049194,347.434723 349.222443,357.984924 
	C339.477142,369.632904 334.804108,383.493866 333.292450,398.559875 
	C332.469879,406.758087 333.170197,415.124268 330.321350,423.126984 
	C328.106262,429.349304 324.628723,434.769531 320.304382,439.574127 
	C318.091309,442.032928 317.224060,444.417175 317.301605,447.600433 
	C317.463898,454.261047 316.928894,460.960144 317.429474,467.586853 
	C318.883057,486.828735 304.778717,505.289276 287.444244,511.224579 
	C286.692871,511.481812 286.035767,512.014282 285.167358,512.709229 
	C266.645782,513.000000 248.291550,513.000000 229.468658,513.000000 
M354.630096,292.277435 
	C362.029053,272.745148 362.911804,252.656830 358.086853,232.593903 
	C352.700562,210.196869 340.845825,191.525391 322.858856,176.814133 
	C300.189362,158.273056 274.014130,150.709579 245.312485,153.639114 
	C219.216614,156.302689 197.052078,167.786804 179.283646,187.621658 
	C164.328827,204.315674 155.591965,223.814789 153.585022,245.769424 
	C150.546600,279.007446 161.063919,307.833466 184.802933,331.695343 
	C191.597260,338.524841 197.216476,346.382568 201.479523,355.091217 
	C208.889008,370.227570 212.704468,386.143188 212.424484,403.102875 
	C212.217926,415.616089 218.083252,422.244446 230.007095,422.522614 
	C247.820755,422.938202 265.661774,422.990448 283.469940,422.470825 
	C291.671844,422.231537 298.962311,420.634338 301.196533,407.450378 
	C302.339783,400.704071 301.367340,393.912079 302.477936,387.102844 
	C306.094147,364.931244 315.624084,345.848267 331.106110,329.735901 
	C341.381531,319.042084 349.048676,306.782501 354.630096,292.277435 
M245.843704,482.638885 
	C253.171341,482.639893 260.506561,482.848694 267.824371,482.581238 
	C274.631378,482.332458 281.075562,480.875854 284.347443,473.811920 
	C287.022797,468.035858 286.829620,461.866882 286.535889,455.720398 
	C286.443512,453.786743 284.963562,453.377045 283.323883,453.377197 
	C265.671204,453.378662 248.018539,453.380524 230.365860,453.387634 
	C228.901428,453.388214 227.578995,453.841919 227.490356,455.497986 
	C227.152740,461.805695 226.782455,468.218292 229.652298,474.066681 
	C232.700470,480.278503 238.604355,481.964996 245.843704,482.638885 
z"/>
<path fill="#000000" opacity="1.000000" stroke="none" 
	d="
M1.000000,249.466125 
	C6.406839,242.128433 13.702130,241.329300 21.890921,241.516830 
	C40.535500,241.943893 59.196495,241.638260 77.850769,241.665161 
	C87.132408,241.678558 92.345535,247.124115 92.348763,256.705566 
	C92.352112,266.667145 87.165466,272.313751 77.846764,272.334656 
	C58.026649,272.379181 38.201462,272.112518 18.388767,272.502411 
	C11.059527,272.646637 5.391098,270.787903 1.240330,264.232361 
	C1.000000,259.310730 1.000000,254.621490 1.000000,249.466125 
z"/>
<path fill="#000000" opacity="1.000000" stroke="none" 
	d="
M513.000000,263.536804 
	C508.923676,270.646820 503.015167,272.663330 495.298492,272.497131 
	C475.648193,272.073853 455.982697,272.374817 436.323334,272.344513 
	C426.498352,272.329376 421.600311,266.793030 421.651367,255.892059 
	C421.692841,247.037277 427.286194,241.658173 436.471619,241.656555 
	C456.630829,241.653015 476.793640,241.875626 496.947296,241.541000 
	C504.287567,241.419128 509.472870,243.844910 512.871338,250.682602 
	C513.000000,255.024551 513.000000,259.049103 513.000000,263.536804 
z"/>
<path fill="#000000" opacity="1.000000" stroke="none" 
	d="
M263.535339,1.000000 
	C271.076782,5.309607 272.667175,11.726031 272.485229,19.686426 
	C272.040680,39.135643 272.357422,58.601849 272.328186,78.061150 
	C272.314545,87.153320 266.729919,92.338768 257.066956,92.345657 
	C247.399002,92.352539 241.685165,87.163071 241.665649,78.181595 
	C241.622314,58.223385 241.912003,38.259834 241.515274,18.309414 
	C241.369644,10.986936 243.090622,5.299609 249.770401,1.241717 
	C254.356903,1.000000 258.713806,1.000000 263.535339,1.000000 
z"/>
<path fill="#000000" opacity="1.000000" stroke="none" 
	d="
M128.150009,104.852684 
	C132.273422,108.996017 136.315262,112.735069 139.967133,116.822533 
	C146.896942,124.578903 147.232834,134.881622 141.023712,141.075623 
	C134.901962,147.182449 124.738152,147.238541 117.259979,140.106628 
	C103.421234,126.908638 89.979744,113.285133 76.647682,99.571617 
	C73.601265,96.438034 71.351791,92.485252 71.571548,87.515533 
	C71.831024,81.647484 73.414101,76.575127 78.797218,73.698723 
	C84.597481,70.599426 90.612289,70.539223 96.299278,74.210785 
	C102.654488,78.313759 107.316048,84.288162 112.712738,89.444901 
	C117.881844,94.384186 122.840958,99.543243 128.150009,104.852684 
z"/>
<path fill="#000000" opacity="1.000000" stroke="none" 
	d="
M373.544006,141.550232 
	C366.570587,133.686813 366.808716,124.175331 374.506195,116.294472 
	C387.309296,103.186295 400.317047,90.273842 413.428680,77.473633 
	C417.401428,73.595291 422.114899,71.082497 428.198761,71.590126 
	C439.083496,72.498352 445.823059,83.490829 441.195099,93.403442 
	C439.785126,96.423538 437.922180,99.153290 435.526550,101.535782 
	C423.004120,113.989433 410.573761,126.536041 398.010986,138.948639 
	C390.278778,146.588379 381.972168,147.477188 373.544006,141.550232 
z"/>
<path fill="#000000" opacity="1.000000" stroke="none" 
	d="
M218.680389,234.657623 
	C216.033707,238.606415 215.309586,242.957336 213.579391,246.899734 
	C210.463898,253.998611 203.002991,257.998535 195.195892,256.167297 
	C189.847153,254.912735 183.175766,249.531174 183.570404,241.328064 
	C184.168762,228.889755 189.909485,218.912201 197.286026,209.443558 
	C209.556427,193.693039 225.818558,184.741379 245.291077,182.107559 
	C252.408340,181.144897 260.209839,179.526459 267.016083,184.511658 
	C271.831390,188.038605 273.940460,194.871826 272.143829,202.110489 
	C270.934265,206.983932 265.623840,211.545456 260.404999,212.336578 
	C250.798920,213.792755 240.989807,214.081482 232.472153,220.064651 
	C226.885040,223.989243 222.531769,228.753220 218.680389,234.657623 
z"/>
</svg>