<?xml version="1.0" encoding="UTF-8"?>
<svg id="Layer_1" data-name="Layer 1" xmlns="http://www.w3.org/2000/svg" viewBox="0 0 610 1000">
  <defs>
    <style>
      .cls-1 {
        fill: #3a3531;
      }

      .cls-1, .cls-2, .cls-3, .cls-4, .cls-5 {
        stroke-width: 0px;
      }

      .cls-2 {
        fill: #3a3532;
      }

      .cls-3 {
        fill: #45403c;
      }

      .cls-4 {
        fill: #403a3c;
      }

      .cls-5 {
        fill: #332d2f;
      }
    </style>
  </defs>
  <path class="cls-2" d="m587.96,1000c-188.36,0-376.71,0-565.68-.33-15.83-6.97-22.28-18.92-22.28-35.17C.04,692.78.03,421.07.03,149.35c0-2.33-.06-4.67,0-7,.59-19.5,15.86-33.77,34.24-33.45,31.31.56,62.64.16,93.96.16h5.78v-5.29c0-23.49-.02-46.98.03-70.47.02-9.34,2.64-17.87,9.52-24.39,3.65-3.47,8.23-5.97,12.4-8.91,99.02,0,198.05,0,297.71.31,14.97,6.5,22.26,17.37,22.28,33.01.03,23.15,0,46.3,0,69.46v6.31h100.27c19.92,0,34.12,14.65,33.32,34.49-.84.15-1.86.48-1.86.81.02,6.65.27,13.3.27,19.96.02,265.17.01,530.35.02,795.52,0,1.67-.22,3.37.09,4.98.21,1.13,1.15,2.11,1.83,3.58-.5,3.51-.82,6.67-1.66,9.68-2.99,10.73-10.81,17.1-20.27,21.89m-14.14-848.45c-.13-.1-.26-.29-.39-.28-.13,0-.36.19-.36.31-.05,1.83-.1,3.66-.1,5.49v807.04c.21.02.42.04.64.07.12-1.4.24-2.79.86-4.85.16-1.47.47-2.95.47-4.42.02-265.87.02-531.74-.02-797.62,0-1.75-.61-3.51-1.1-5.73M38.95,254.5v707.54h531.85V147.95h-98.76c-20.99,0-34.89-14.06-34.87-35.19.02-23.33,0-46.66,0-69.99v-4.69H172.96v4.28c0,23.66-.14,47.33,0,70.99.13,20.49-16,35.2-34.94,34.78-30.81-.68-61.66-.19-92.49-.19h-6.6v106.55m535.23-107.92l-.52.74c.26-.16.51-.31.52-.74Z"/>
  <path class="cls-3" d="m609.55,143.57c.34,1.17.45,2.17.45,3.16,0,273.45,0,546.9-.09,820.81-.69-.59-1.63-1.58-1.85-2.7-.31-1.61-.09-3.32-.09-4.98,0-265.17,0-530.35-.02-795.52,0-6.65-.24-13.3-.27-19.96,0-.33,1.03-.66,1.86-.81h.01Z"/>
  <path class="cls-5" d="m573.96,959.99c-.12,1.4-.24,2.79-.37,4.19-.21-.02-.42-.04-.64-.07V157.07c0-1.83.05-3.66.1-5.49,0-.11.23-.3.36-.31.13,0,.26.18.47.99.07,269.71.07,538.72.07,807.73h.01Z"/>
  <path class="cls-4" d="m574.21,959.66c-.25-268.68-.25-537.69-.24-807.16.33,1.29.94,3.04.94,4.79.04,265.87.04,531.74.02,797.62,0,1.47-.31,2.95-.72,4.75h0Z"/>
  <path class="cls-5" d="m574.31,146.72c-.13.29-.39.45-.64.6.17-.25.35-.49.64-.6Z"/>
  <path class="cls-1" d="m357.11,431.2c-6.55,21.67-13.01,42.94-19.64,64.77h109.74c-88.13,109.79-175.51,218.64-262.88,327.5-.4-.25-.79-.5-1.19-.76,28.45-83.29,56.89-166.58,85.59-250.62h-105.65c83.89-110.5,167.1-220.09,250.31-329.69l.99.42c-19.06,62.66-38.13,125.32-57.28,188.37h.01Z"/>
</svg>