<?xml version="1.0" encoding="UTF-8"?>
<svg id="Layer_1" data-name="Layer 1" xmlns="http://www.w3.org/2000/svg" viewBox="0 0 837.61 942.77">
  <defs>
    <style>
      .cls-1 {
        fill: #3b3634;
      }

      .cls-1, .cls-2, .cls-3, .cls-4 {
        stroke-width: 0px;
      }

      .cls-2 {
        fill: #3b3633;
      }

      .cls-3 {
        fill: #3a3532;
      }

      .cls-4 {
        fill: #fbf8f5;
      }
    </style>
  </defs>
  <path class="cls-3" d="m666.09,0c6.05,1.19,11.67,2.3,17.26,3.58,38.42,8.84,70.77,28.35,97.98,56.53,21,21.75,36.71,46.91,45.88,75.81,7.21,22.74,9.94,46.32,10.12,70.06.39,51.99.32,103.99.15,155.98-.09,27.63-.53,55.27-1.26,82.9-.86,32.66-8.66,63.57-25.08,92.03-10.24,17.74-22.47,34.01-37.59,47.89-15.61,14.34-34.1,21.98-55.41,22.44-2.04.04-4.08.06-6.13.06-194.64,0-389.28-.08-583.93.1-28.22.03-50.95-10.68-69.66-31.38-22.46-24.85-39.12-52.87-47.58-85.43-2.29-8.82-3.73-17.87-5.26-26.87-.63-3.72-.44-7.58-.67-12.17-.67-30.61-1.86-60.42-1.8-90.23.11-59.15.91-118.31,1.53-177.8.08-1.05.07-1.77.19-2.81.15-1.04.16-1.76.36-2.81,1.27-7.47,2.05-14.66,3.5-21.72,1.6-7.81,3.24-15.7,5.86-23.2,11.24-32.14,29.72-59.64,54.87-82.51C93.71,28.36,121.55,12.54,153.56,4.52c6.6-1.65,13.27-3.02,19.91-4.52,164.06,0,328.12,0,492.62,0M170.17,229.99H39.43c0,3.13-.01,5.77,0,8.4.38,68.18.44,136.37,1.4,204.54.2,13.96,2.54,28.19,6.01,41.75,6.25,24.38,19.39,45.28,35.86,64.31,13.05,15.08,28.41,22.53,48.84,22.49,193.58-.36,387.16-.22,580.74-.22,1.89,0,3.78.05,5.66-.06,11.17-.64,21.29-4.23,29.61-11.76,20.54-18.6,35.01-41.32,44.33-67.31,7.63-21.29,8.9-43.67,9.11-65.92.58-64.1.38-128.21.46-192.32,0-1.2-.2-2.39-.31-3.57-.76-.14-1.21-.3-1.65-.3-55.94-.01-111.87-.04-167.81.1-1.42,0-3.1,1.49-4.21,2.7-3.9,4.22-7.06,9.3-11.49,12.81-10.14,8.05-22.39,10.48-35.01,10.49-107.32.08-214.64.14-321.95-.07-19.37-.04-36.12-6.22-46.43-24.29-.6-1.05-2.78-1.69-4.23-1.7-12.41-.13-24.83-.08-38.18-.08M637.54,34.09c-12.88-.35-25.75-.98-38.63-.99-114.38-.08-228.77-.1-343.15-.02-16.64.01-33.3.31-49.93,1-16.78.69-33.75,1.58-49.67,7.2-61.99,21.92-101.39,63.97-113.44,129.68-1.36,7.44-1.7,15.06-2.51,22.6h760.35c-1.27-15.56-2.53-30.79-7.42-45.27-16.06-47.52-47.49-81.08-93.2-101.5-2-.89-3.56-2.77-5.38-4.24-1.03.08-2.87.76-4.31.27-16.81-5.79-34.32-7.26-52.73-8.73Z"/>
  <path class="cls-2" d="m370.95,942.77c-8.64-4.74-17.61-8.54-24.89-14.42-16.02-12.93-23.56-30.8-24.49-51.03-1.63-35.18,11.1-66.01,30.73-94.35,12.25-17.69,26.2-34.01,42.24-48.41,4.75-4.26,9.92-8.26,15.45-11.4,9.33-5.29,19.2-.66,22,9.7,1.3,4.81-.39,8.67-4.62,12.25-12.41,10.53-25.21,20.68-36.85,32.01-11.12,10.83-20.27,23.48-27.59,37.29-1.19,2.25-1.99,4.7-3.43,8.18,6.01-2.57,10.56-5.05,15.42-6.52,26.7-8.08,51.73-5.56,72.89,14.02,15.31,14.17,20.56,32.64,18.42,53.07-3.1,29.72-19.56,49-47.53,59.27-15.83.33-31.57.33-47.74.33m69.22-62.07c.39-7.64-.53-15.09-4.04-21.96-10.5-20.56-34.99-29.71-58.1-21.32-17.4,6.32-28.22,18.5-29.49,37.51-1.18,17.7,5.72,32.08,21.61,40.15,26.44,13.43,65.72,2.62,70.02-34.39Z"/>
  <path class="cls-1" d="m529.33,942.77c-5.16-3.96-6.22-9.04-6.18-15.07.44-63.45.66-126.9.97-190.36.02-3.12-.19-6.37.6-9.33,1.44-5.42,8.56-9.09,14.86-8.19,6.8.96,11.05,5.33,11.03,11.87-.08,25.45-.29,50.89-.45,76.33,0,1.21,0,2.42,0,4.62,1.98-1.47,3.3-2.38,4.55-3.39,18.01-14.54,48.15-16.87,67.91-5.16,13.58,8.05,20.56,20.46,22.1,35.76,1.04,10.28,1.02,20.68,1.1,31.03.15,19.16,0,38.33.04,57.49.01,5.44-1.26,10.26-5.77,14.05-4.68.33-9.42.33-14.77.06-5.05-3.37-6.2-7.74-6.17-12.96.15-25.41.45-50.83,0-76.24-.43-24.07-15.96-36.77-38.36-32.08-16,3.35-32.08,17.4-31.43,37.88.75,23.35.15,46.74.44,70.11.07,5.64-1.37,10.12-5.83,13.56h-14.64Z"/>
  <path class="cls-2" d="m265.36,942.77c-5.82-4.66-7.14-10.58-7.08-17.54.48-51.34.71-102.68.89-154.02.01-4.19-.66-8.45-1.54-12.56-1.25-5.84-3.88-7.8-9.82-8.11-2.19-.11-4.4.01-6.59-.06-7.57-.26-12.2-4.37-13.03-11.51-.91-7.8,3.57-15.56,10.55-16.68,9.94-1.61,20.07-2.03,29.86,1,11.12,3.44,18.12,11.34,18.8,22.79,1.05,17.68.89,35.44.92,53.16.08,42.86-.02,85.71-.04,128.57,0,5.67-.79,11.01-6.29,14.66-5.47.31-10.83.31-16.63.31Z"/>
  <path class="cls-4" d="m0,184.28c1.26-.44,2.53-.45,4.17-.45-.14,59.15-.93,118.31-1.05,177.46-.06,29.81,1.13,59.62,1.66,89.86-1.39.43-2.7.43-4.39.43-.39-88.95-.39-177.91-.39-267.3Z"/>
  <path class="cls-4" d="m4.85,180.68c-2.41-.31-2.59-1.22-.17-2.45.33.69.32,1.41.17,2.45Z"/>
  <path class="cls-4" d="m3.4,172.79c-.15-.12-.17-.33-.19-.53.11.15.22.3.19.53Z"/>
</svg>