<svg version="1.1" id="Layer_1" xmlns="http://www.w3.org/2000/svg" xmlns:xlink="http://www.w3.org/1999/xlink" x="0px" y="0px"
	 width="100%" viewBox="0 0 992 928" enable-background="new 0 0 992 928" xml:space="preserve">
<path fill="#000000" opacity="1.000000" stroke="none" 
	d="
M151.468658,929.000000 
	C150.755478,918.865723 150.976837,908.755859 151.534256,898.620056 
	C152.741547,876.666870 155.645966,854.969116 160.099350,833.461853 
	C167.539917,797.528076 179.866791,763.352112 197.505630,731.169434 
	C210.692154,707.110107 226.703125,685.035522 245.453705,664.976196 
	C280.936737,627.016479 323.064880,598.659973 370.873871,578.661499 
	C389.011505,571.074463 407.745575,565.151733 426.807678,560.263855 
	C429.814575,559.492798 432.053619,560.604187 434.373505,561.733643 
	C453.013184,570.808350 472.425232,577.763977 492.618683,582.337646 
	C523.836792,589.408386 555.335693,591.517212 587.298645,588.075806 
	C621.111450,584.435303 653.131897,575.108765 683.675415,560.376892 
	C684.921875,559.775635 686.024414,559.569702 687.466125,559.947876 
	C744.982056,575.033142 797.510864,600.010193 842.700623,639.114868 
	C877.502014,669.230042 905.131775,704.992554 925.280151,746.498047 
	C942.867065,782.726929 953.935059,820.841431 959.585022,860.647766 
	C962.442688,880.780823 964.007202,900.985168 964.110413,921.306763 
	C964.122070,923.610168 963.595459,925.916382 963.159180,928.610596 
	C692.645752,929.000000 422.291534,929.000000 151.468658,929.000000 
M255.499969,900.725342 
	C465.321686,900.735229 675.143372,900.745361 884.965088,900.754150 
	C896.964417,900.754639 908.964172,900.682556 920.962708,900.777222 
	C924.225464,900.802917 926.038818,900.019470 925.592651,896.265137 
	C924.161621,884.223816 923.382507,872.081604 921.422302,860.130859 
	C915.347900,823.096680 904.281433,787.641113 886.490723,754.451294 
	C863.241211,711.077820 831.434570,675.349487 790.900818,647.383850 
	C761.578796,627.153564 729.583984,612.565002 695.709595,601.892883 
	C692.237244,600.799011 688.896912,599.830200 685.081421,601.466370 
	C642.234802,619.840271 597.507690,628.343445 550.860352,627.412964 
	C509.765808,626.593262 470.304718,618.427917 432.426758,602.595520 
	C428.226929,600.840088 424.449707,600.228577 419.987946,601.638123 
	C380.603455,614.080811 343.857147,631.564209 311.056763,657.024841 
	C261.991882,695.110535 227.962769,743.766174 208.053528,802.422424 
	C198.014145,832.000305 191.877350,862.378906 190.175430,893.618103 
	C189.787079,900.746094 189.638016,900.733093 197.003143,900.731323 
	C216.168747,900.726746 235.334351,900.726868 255.499969,900.725342 
z"/>
<path fill="#000000" opacity="1.000000" stroke="none" 
	d="
M289.531342,1.000000 
	C294.559692,21.279026 297.841553,41.728031 299.451965,62.487385 
	C300.691559,78.465973 300.678833,94.438309 300.270477,110.396767 
	C299.252228,150.189774 292.117371,188.997314 280.195801,226.936951 
	C267.172394,268.383057 247.841248,306.768127 223.099518,342.383820 
	C205.477356,367.750946 185.247177,390.956543 162.464539,411.861511 
	C152.755798,420.770081 142.042618,421.239716 133.869095,413.439148 
	C127.225632,407.098816 126.156532,394.731110 132.334488,387.975739 
	C139.288040,380.372284 147.051895,373.515686 154.134598,366.023499 
	C181.184525,337.409576 203.621841,305.573151 221.294006,270.319458 
	C239.942657,233.117752 252.125137,193.908615 258.444092,152.884232 
	C262.222748,128.351959 263.638245,103.575890 262.498474,78.776161 
	C261.506592,57.194138 258.720428,35.768990 254.237305,14.598719 
	C253.325546,10.293186 253.281036,6.014352 254.870377,1.399222 
	C266.354218,1.000000 277.708466,1.000000 289.531342,1.000000 
z"/>
<path fill="#000000" opacity="1.000000" stroke="none" 
	d="
M589.766479,73.885727 
	C612.029541,77.361214 633.178894,83.134613 653.177063,92.600624 
	C709.315186,119.173241 749.005432,161.397095 771.739685,219.136765 
	C783.465698,248.918198 787.071777,280.172394 786.601990,312.122559 
	C786.063721,348.726440 778.072815,383.314880 761.250000,415.827911 
	C747.787720,441.845856 730.127014,464.590851 707.890259,483.719025 
	C680.690979,507.115936 649.929810,523.784546 615.057800,532.591003 
	C585.386047,540.084351 555.508484,542.009766 525.039429,537.595947 
	C471.681519,529.866455 426.840210,506.063843 390.031281,467.168274 
	C366.126312,441.908173 349.263275,412.349945 338.641052,379.055145 
	C328.742767,348.029602 327.287811,316.268402 328.972260,284.262207 
	C330.491150,255.401077 338.048126,227.773148 350.656158,201.785614 
	C365.682465,170.813629 386.581024,144.307434 413.446167,122.587242 
	C444.009216,97.877365 478.706818,82.292328 517.293335,75.322266 
	C539.691467,71.276375 562.225769,70.438263 584.843140,73.493263 
	C586.324890,73.693420 587.831848,73.707329 589.766479,73.885727 
M684.795410,453.293610 
	C709.679504,430.648773 727.913452,403.557098 738.758118,371.679718 
	C750.665100,336.679443 752.116760,300.699738 745.228516,264.785461 
	C735.182007,212.404541 707.140259,171.096527 662.805542,141.552567 
	C626.949463,117.658554 587.192810,107.048981 543.915405,110.194450 
	C516.743835,112.169334 491.263092,119.730736 467.321625,132.442474 
	C447.440399,142.998428 430.148376,156.991837 415.049377,173.698624 
	C396.322571,194.419540 382.895691,218.283066 374.675018,244.815933 
	C365.382172,274.809418 364.243530,305.613983 368.206818,336.667603 
	C372.480774,370.154846 385.230713,400.226471 405.787659,426.789734 
	C436.196289,466.083130 476.041290,490.272980 525.043762,499.110413 
	C548.916382,503.415771 572.785706,502.962708 596.460510,497.960754 
	C629.562744,490.966980 658.819458,476.090302 684.795410,453.293610 
z"/>
<path fill="#000000" opacity="1.000000" stroke="none" 
	d="
M198.173035,179.959366 
	C190.589142,210.943115 178.462158,239.700287 162.755249,266.867584 
	C152.165070,285.184753 139.605087,302.217834 125.690071,318.235474 
	C117.588539,327.561188 108.741112,336.121948 99.899475,344.696228 
	C89.179939,355.091614 72.411446,351.778137 67.613586,338.193604 
	C64.643532,329.784271 67.340721,322.483551 73.741425,316.496521 
	C90.463234,300.855499 105.451149,283.728485 118.359573,264.792023 
	C143.974518,227.215286 160.504974,185.969025 167.392227,141.057663 
	C172.909805,105.077797 172.122787,69.131966 164.265579,33.466213 
	C161.883041,22.651325 167.680679,12.611818 177.752747,10.101789 
	C188.505890,7.422032 198.173080,13.009963 201.147034,24.069414 
	C204.434738,36.295723 205.830307,48.891018 207.180298,61.432407 
	C208.300644,71.840324 208.952621,82.343460 209.030533,92.810226 
	C209.249146,122.175056 205.671188,151.119339 198.173035,179.959366 
z"/>
<path fill="#000000" opacity="1.000000" stroke="none" 
	d="
M89.783188,207.685120 
	C77.715736,230.940964 62.987267,251.803909 44.469715,269.898804 
	C42.206638,272.110229 39.835930,274.211060 37.540344,276.389771 
	C29.162767,284.340881 17.562929,284.501495 9.814631,276.760620 
	C2.468628,269.421692 2.646019,256.737823 10.683387,248.909393 
	C19.526903,240.295761 28.215799,231.565598 35.608528,221.661499 
	C60.082367,188.873749 74.608315,152.336411 77.829002,111.320190 
	C79.354477,91.892937 77.850334,72.834930 74.105644,53.807709 
	C72.461739,45.454849 73.921593,37.769333 81.449432,32.494736 
	C88.400330,27.624395 96.358704,27.883450 103.886536,32.790581 
	C108.117554,35.548630 110.100853,39.746502 111.080940,44.357140 
	C116.801048,71.266205 118.064445,98.388298 114.709312,125.720833 
	C111.191788,154.376358 102.842941,181.551025 89.783188,207.685120 
z"/>
</svg>