<svg version="1.1" id="Layer_1" xmlns="http://www.w3.org/2000/svg" xmlns:xlink="http://www.w3.org/1999/xlink" x="0px" y="0px"
	 width="100%" viewBox="0 0 512 512" enable-background="new 0 0 512 512" xml:space="preserve">
<path fill="#000000" opacity="1.000000" stroke="none" 
	d="
M234.000000,1.000000 
	C251.687561,1.000000 269.375122,1.000000 287.814789,1.206392 
	C293.877655,2.464773 299.172089,3.609051 304.501892,4.553608 
	C336.433319,10.212565 366.023132,21.868877 393.503448,39.031582 
	C418.272705,54.501091 439.523468,73.871910 457.865601,96.531998 
	C473.017853,115.251274 485.171143,135.733459 494.413788,157.964859 
	C504.421448,182.036331 510.273651,207.129028 513.000000,233.000000 
	C513.000000,248.687561 513.000000,264.375122 512.969055,280.927673 
	C511.634430,290.629120 510.745911,299.550964 508.949768,308.286194 
	C503.427277,335.142914 494.024902,360.567657 480.472137,384.487457 
	C464.872620,412.019745 444.462830,435.526001 420.350281,455.698761 
	C402.476532,470.652008 382.712677,482.869934 361.183563,492.175079 
	C342.983704,500.041351 324.276520,505.925629 304.793884,509.617249 
	C299.528595,510.614960 293.931732,510.373291 289.000000,513.000000 
	C267.979095,513.000000 246.958206,513.000000 225.249481,512.743164 
	C218.580460,511.418427 212.562424,510.522949 206.624344,509.253448 
	C175.680191,502.638031 146.535355,491.573486 119.739075,474.483765 
	C95.415321,458.970856 74.364326,439.879974 56.252552,417.516754 
	C41.334461,399.096924 29.206657,378.957153 20.092924,357.054810 
	C13.000848,340.011047 7.692198,322.448975 4.379245,304.243958 
	C3.453627,299.157562 3.946797,293.663116 1.000000,289.000000 
	C1.000000,268.312439 1.000000,247.624878 1.203356,226.159515 
	C3.371169,223.078751 2.277859,220.251831 2.727251,217.689362 
	C7.220015,192.070999 14.468163,167.318756 25.894316,143.874023 
	C42.162609,110.493980 65.003685,82.181519 93.404503,58.538475 
	C121.980865,34.749302 154.457306,18.048670 190.528336,8.589708 
	C204.805588,4.845767 219.325287,2.475161 234.000000,1.000000 
M89.332443,141.774216 
	C85.427315,148.144333 81.171387,154.328262 77.675407,160.915527 
	C58.579582,196.896713 50.366440,235.056931 54.212029,275.847778 
	C56.102268,295.897949 60.761055,315.139099 68.497009,333.582336 
	C85.154091,373.294281 111.324013,405.275055 147.793518,428.436523 
	C186.925552,453.288940 229.505356,464.076752 275.913300,459.754242 
	C295.975586,457.885651 315.242706,453.217834 333.677979,445.449799 
	C362.376526,433.357208 387.499634,416.154663 408.277740,392.588531 
	C419.582123,379.767303 429.371735,366.054016 437.294983,351.019287 
	C449.818909,327.254639 457.517914,302.066132 459.852783,275.147339 
	C461.110291,260.649384 461.023376,246.227249 459.324066,231.909363 
	C457.406433,215.752060 453.290375,200.005585 447.342621,184.768051 
	C434.319397,151.403656 414.141296,123.097778 386.660522,100.268433 
	C368.935760,85.543785 349.106934,74.214729 327.377197,66.043900 
	C292.082977,52.772579 255.869492,49.502747 219.176193,56.856388 
	C165.065445,67.700630 121.735672,95.949913 89.332443,141.774216 
z"/>
<path fill="#000000" opacity="1.000000" stroke="none" 
	d="
M198.190002,344.591797 
	C194.481537,338.518066 193.738480,331.998840 193.715302,325.583923 
	C193.549942,279.770660 193.592651,233.956482 193.688263,188.142853 
	C193.696152,184.365036 194.333740,180.536682 195.108871,176.821548 
	C198.064545,162.655228 210.667023,159.692841 222.263031,164.610062 
	C230.396744,168.059097 237.841736,172.848495 245.474380,177.257767 
	C270.504059,191.717010 295.550720,206.147064 320.547852,220.662399 
	C331.748260,227.166245 343.057831,233.518127 353.936432,240.530746 
	C366.934662,248.909744 367.052704,265.392517 353.952972,273.430939 
	C334.414032,285.420624 314.453796,296.725800 294.631195,308.250671 
	C274.239807,320.106323 253.871811,332.005859 233.337296,343.609619 
	C226.627060,347.401550 220.103989,351.869202 211.641022,351.490265 
	C206.027130,351.238922 201.793549,349.164764 198.190002,344.591797 
z"/>
</svg>