<?xml version="1.0" encoding="UTF-8"?>
<svg id="Layer_1" data-name="Layer 1" xmlns="http://www.w3.org/2000/svg" viewBox="0 0 1018.61 342.67">
  <defs>
    <style>
      .cls-1 {
        fill: #b41428;
        stroke-width: 0px;
      }
    </style>
  </defs>
  <g id="logo-logo">
    <path class="cls-1" d="m300.03,10.52c-47.76-23.5-91.03-4.14-111.03,23.79-14.12,19.72-16.15,42.09-6.45,60.67.15.4.34.79.58,1.15l.26.39c1.33,2.35,2.84,4.64,4.55,6.85l.04.06c.03.05.08.08.11.13,1.5,1.92,3.14,3.78,4.93,5.57,2.11,2.12,5.55,2.12,7.66,0,1.68-1.68,2-4.18,1.02-6.2,2.72-1.27,3.94-2.63,4.27-4.93.05-.35.03-.78-.03-1.26,2.51-.9,4.58-2.13,4.99-5.04.38-2.64-2.02-7.59-5-9.03-2.18-1.05-4.73-.67-6.48.94-.25.14-.73.34-1.07.46-.13.04-.23.12-.36.17-2.52-1.12-5.33-.59-7.2,1.38-.12.11-.33.26-.57.41-6.46-16.14-1.24-33.1,7.57-45.4,17.42-24.33,55.34-41.09,97.43-20.38,27.13,13.35,31.49,38.28,30.37,56.84-3.13,52-54.12,124.83-131.05,151.8-13.07,4.58-23.28,9.75-31.22,15.24-5.22-8.69-16.03-13.4-21.29-15.24C65.12,201.91,14.12,129.09,11,77.08c-1.12-18.56,3.25-43.49,30.37-56.83,39.5-19.44,73.9-5.11,91.34,13.06,15.12,15.75,20.14,35.89,13.56,52.65-.2-.13-.37-.24-.47-.34-1.89-1.99-4.7-2.52-7.22-1.39-.12-.05-.23-.13-.36-.17-.27-.09-.8-.31-1.07-.46-1.75-1.61-4.3-1.99-6.48-.94-2.98,1.44-5.38,6.39-5,9.02.41,2.92,2.48,4.15,5,5.05-.06.48-.08.92-.03,1.27.33,2.29,1.54,3.65,4.26,4.92-.99,2.02-.66,4.52,1.02,6.2,2.12,2.12,5.55,2.12,7.66,0,1.7-1.7,3.26-3.45,4.65-5.21.07-.08.14-.17.22-.27.01-.02.02-.03.03-.04.04-.05.07-.1.11-.15,0-.01.02-.02.03-.03l.05-.07c1.79-2.3,3.4-4.7,4.76-7.16,0-.01.01-.02.02-.03v-.02s.04-.06.06-.08c.09-.16.18-.32.26-.48,11.75-21.76,6.55-49.13-13.26-69.76C120.55,4.99,81.33-11.5,36.58,10.52,11.25,22.99-1.68,46.86.18,77.73c3.33,55.47,57.15,132.94,138.29,161.38,6.68,2.34,13.96,6.57,16.25,11.89-17.1,15.89-18.17,33.55-14.62,47.65,4.28,16.97,15.93,30.97,31.97,38.4,8.1,3.75,16.75,5.62,25.42,5.62,9.14,0,18.28-2.08,26.76-6.24,30.01-14.72,42.77-37.9,37.02-66.28,1.17-1.96,1.58-4.37.91-6.74l-3.84-13.65c-.64-2.26-2.19-4.18-4.26-5.28-.54-.29-1.11-.51-1.7-.67l-2.82-8.51c-.45-1.37-1.49-2.48-2.78-3.13-1.29-.64-2.84-.73-4.21-.27-2.83.95-4.36,4.01-3.42,6.84l2.82,8.51c-.37.48-.7,1-.96,1.56-1.01,2.12-1.1,4.59-.27,6.78l5.06,13.25c.94,2.45,2.87,4.21,5.16,5.03,4.06,22.83-6.47,40.56-31.49,52.83-13.57,6.65-29.18,6.84-42.84.52-13.06-6.05-22.54-17.43-26.02-31.22-6.18-24.52,9.81-43.65,47.54-56.88,81.13-28.44,134.95-105.91,138.28-161.38,1.86-30.88-11.07-54.75-36.41-67.22"/>
  </g>
  <g>
    <path class="cls-1" d="m403.48,269.56h-43.82V44.51h68.4l40.92,176.95,40.61-176.95h67.63v225.04h-43.82V117.34c0-4.38.05-10.51.15-18.4.1-7.89.15-13.97.15-18.24l-42.6,188.86h-45.65l-42.29-188.86c0,4.27.05,10.36.15,18.24.1,7.89.15,14.02.15,18.4v152.22Z"/>
    <path class="cls-1" d="m755.09,269.56v-100.46h-87.94v100.46h-46.57V44.51h46.57v85.8h87.94V44.51h46.72v225.04h-46.72Z"/>
    <path class="cls-1" d="m1003.34,171.23h-109.32v57.86h124.58v40.46h-170.54V44.51h165.04v39.85h-119.09v47.79h109.32v39.08Z"/>
  </g>
</svg>